#!OML:ASF I:\golf\golf\golf 2\Subject 1\2002-09-07\Subject1.ASF
:FULLY-SPECIFIED
:DEGREES
290
root -7.41398 17.9969 -2.60108 -176.254 33.6149 -178.635
lowerback -4.26931 6.37485 11.1408
upperback -2.46496 12.1263 17.6708
thorax -2.46196 7.64319 13.3939
lowerneck -0.778284 -23.7765 -5.52435
upperneck 26.2635 -28.6818 -6.62418
head 8.18036 -13.433 -3.2246
rclavicle 1.59028e-014 3.02153e-013
rhumerus 45.1774 55.1272 -77.1098
rradius 38.377
rwrist 8.65994
rhand -6.92098 11.1626
rfingers 7.12502
rthumb 18.9468 -17.9346
lclavicle 1.59028e-014 3.02153e-013
lhumerus 10.0503 -5.29485 90.9458
lradius 50.9339
lwrist 59.0044
lhand -26.0512 20.2947
lfingers 7.12502
lthumb -179.504 -489.726
rfemur 6.21077 -5.84784 5.47559
rtibia 30.7085
rfoot 3.59756 -30.6943
rtoes 22.7063
lfemur -16.9398 -15.8411 -18.2983
ltibia 20.6404
lfoot 9.25042 -39.397
ltoes 32.1892
291
root -7.40486 17.9933 -2.65079 -175.871 32.496 -178.208
lowerback -4.02574 7.24811 14.7586
upperback -2.92914 12.5782 15.2332
thorax -1.80544 7.41741 8.60227
lowerneck -1.2083 -23.9176 -3.47687
upperneck 25.4947 -29.6216 -4.14008
head 8.0727 -13.5393 -2.78058
rclavicle -3.65764e-014 0
rhumerus 49.0279 53.1516 -78.9522
rradius 39.0703
rwrist 10.1925
rhand -8.61509 12.9079
rfingers 7.12502
rthumb 17.3169 -16.3406
lclavicle -3.65764e-014 0
lhumerus 13.2708 -4.88205 86.3725
lradius 52.9551
lwrist 57.0276
lhand -25.8936 18.6946
lfingers 7.12502
lthumb -179.352 -491.327
rfemur 6.53357 -5.85279 6.15606
rtibia 30.4343
rfoot 3.47861 -31.6871
rtoes 25.0631
lfemur -17.3581 -16.433 -17.9508
ltibia 21.0861
lfoot 9.94942 -39.7885
ltoes 33.3117
292
root -7.397 17.9901 -2.7057 -175.695 31.3718 -178.031
lowerback -3.69742 7.40187 14.7353
upperback -3.45354 13.0626 15.0771
thorax -2.57256 7.65066 8.31965
lowerneck -1.52545 -24.2446 -3.30948
upperneck 25.0198 -30.2176 -3.71863
head 8.00739 -13.7951 -2.73268
rclavicle 1.11319e-014 -4.45278e-014
rhumerus 52.1981 53.4553 -77.4775
rradius 40.2228
rwrist 10.2689
rhand -10.43 14.4427
rfingers 7.12502
rthumb 15.5696 -14.9506
lclavicle 1.11319e-014 -4.45278e-014
lhumerus 14.6378 -2.51075 85.5318
lradius 55.3019
lwrist 54.2505
lhand -25.8257 17.2889
lfingers 7.12502
lthumb -179.286 -492.733
rfemur 6.9328 -5.84189 6.61991
rtibia 30.2335
rfoot 3.1038 -32.6968
rtoes 27.4906
lfemur -17.5563 -17.0241 -17.8813
ltibia 21.311
lfoot 10.5766 -40.1947
ltoes 34.2196
293
root -7.39071 17.9852 -2.76384 -175.681 30.3267 -178.029
lowerback -3.38139 7.71004 14.8702
upperback -3.89721 13.6204 14.648
thorax -3.12606 7.87278 7.67648
lowerneck -1.91675 -24.6308 -2.80706
upperneck 24.3228 -30.9536 -3.19797
head 7.84526 -14.1031 -2.683
rclavicle -1.08139e-013 4.77083e-014
rhumerus 56.1843 53.3326 -75.1945
rradius 41.4143
rwrist 9.4491
rhand -12.0927 16.338
rfingers 7.12502
rthumb 13.9677 -13.1728
lclavicle -1.08139e-013 4.77083e-014
lhumerus 15.7645 -1.35016 83.9513
lradius 58.4677
lwrist 52.1106
lhand -26.2222 16.2175
lfingers 7.12502
lthumb -179.669 -493.803
rfemur 7.38104 -5.78747 6.89069
rtibia 30.0926
rfoot 2.35893 -33.5931
rtoes 29.6923
lfemur -17.5327 -17.6837 -17.9859
ltibia 21.3573
lfoot 11.1763 -40.3928
ltoes 34.9173
294
root -7.38331 17.975 -2.81921 -175.607 29.3259 -178.064
lowerback -3.24132 8.09368 14.9994
upperback -4.36011 14.2047 14.1045
thorax -3.55776 8.09542 6.95473
lowerneck -2.22618 -24.9599 -2.47349
upperneck 23.7555 -31.6001 -2.50101
head 7.77368 -14.3485 -2.57563
rclavicle 1.74931e-014 3.81667e-014
rhumerus 60.3765 52.9317 -72.5538
rradius 42.7914
rwrist 8.34139
rhand -13.5059 17.938
rfingers 7.12502
rthumb 12.6055 -11.6617
lclavicle 1.74931e-014 3.81667e-014
lhumerus 17.7233 0.888113 83.6411
lradius 60.6584
lwrist 48.5666
lhand -25.8656 15.4892
lfingers 7.12502
lthumb -179.324 -494.532
rfemur 7.73358 -5.73916 7.13484
rtibia 29.9044
rfoot 1.41032 -34.5247
rtoes 31.9543
lfemur -17.6189 -18.1876 -18.1444
ltibia 21.3889
lfoot 12.4387 -40.5026
ltoes 36.2633
295
root -7.37615 17.9724 -2.87646 -175.307 28.3306 -177.997
lowerback -3.28338 8.46478 15.1173
upperback -4.90931 14.7794 13.5816
thorax -3.98639 8.32517 6.29626
lowerneck -2.22119 -19.7898 -2.64024
upperneck 22.5168 -34.4194 -0.118082
head 7.92242 -17.9496 -2.43415
rclavicle -2.06736e-014 1.74931e-013
rhumerus 64.7048 52.4948 -69.5573
rradius 44.3183
rwrist 7.40555
rhand -15.1179 18.9884
rfingers 7.12502
rthumb 11.051 -10.7006
lclavicle -2.06736e-014 1.74931e-013
lhumerus 19.5418 2.66818 83.131
lradius 63.1575
lwrist 45.5256
lhand -25.5705 14.9096
lfingers 7.12502
lthumb -179.039 -495.113
rfemur 7.89022 -5.82425 7.47667
rtibia 29.6904
rfoot 1.18556 -35.374
rtoes 33.4884
lfemur -17.8756 -18.5264 -18.1714
ltibia 21.3668
lfoot 13.7615 -40.7606
ltoes 37.4591
296
root -7.37073 17.9877 -2.93638 -174.921 27.3156 -177.809
lowerback -3.35649 8.71041 15.2323
upperback -5.49082 15.2378 13.1712
thorax -4.46583 8.51487 5.76182
lowerneck -1.84178 -20.1153 -2.59388
upperneck 21.5946 -34.8175 0.786913
head 7.72223 -18.058 -2.12436
rclavicle 8.42847e-014 1.27222e-013
rhumerus 69.0405 52.1227 -66.4457
rradius 45.8984
rwrist 6.68335
rhand -16.8461 19.7573
rfingers 7.12502
rthumb 9.38386 -10.0138
lclavicle 8.42847e-014 1.27222e-013
lhumerus 21.1015 4.25848 82.3472
lradius 65.7425
lwrist 43.0247
lhand -25.2378 14.4068
lfingers 7.12502
lthumb -178.718 -495.617
rfemur 7.91886 -5.92876 7.97744
rtibia 29.5935
rfoot 1.56486 -36.1675
rtoes 34.0988
lfemur -18.0189 -19.0634 -17.9445
ltibia 21.1039
lfoot 14.2835 -40.9904
ltoes 37.5588
297
root -7.36404 17.992 -2.98933 -174.668 26.2882 -177.652
lowerback -3.4146 8.9292 15.4376
upperback -5.94071 15.5935 12.7241
thorax -4.76229 8.64195 5.1639
lowerneck -1.59376 -20.4862 -2.35106
upperneck 20.5225 -35.1373 1.5562
head 7.43594 -18.1263 -1.85269
rclavicle -9.54166e-014 -1.46306e-013
rhumerus 73.2126 51.4699 -63.5598
rradius 47.4597
rwrist 6.27434
rhand -18.6225 20.3764
rfingers 7.12502
rthumb 7.66954 -9.46456
lclavicle -9.54166e-014 -1.46306e-013
lhumerus 22.8946 5.6657 81.4941
lradius 68.194
lwrist 40.6163
lhand -25.3919 13.5135
lfingers 7.12502
lthumb -178.867 -496.51
rfemur 8.05495 -5.92804 8.51123
rtibia 29.4576
rfoot 1.4585 -37.1605
rtoes 34.5549
lfemur -18.0647 -19.3307 -17.8492
ltibia 20.8416
lfoot 15.2052 -41.2565
ltoes 37.9836
